<?xml version="1.0" encoding="UTF-8"?><svg id="Capa_1" xmlns="http://www.w3.org/2000/svg" viewBox="0 0 370.41 264.93"><defs><style>.cls-1{fill:#262626;}</style></defs><path class="cls-1" d="M215.75,22.44c1.12.56,5.24,1.31,4.33,3.07-.34.65-1.18.28-1.26.83l5.71,2.79.43-1.94c.7-.48,4,2.2,4.86,2.49,1.15.04,3.46-3.22,4.62-2.38.82.6-.59,4.15-.44,5.19,2.21,1.45,7.3,3.69,1.53,4.45,1.4,1.1,5.11,5.68,6.6,6.09,1.31.36,2.08-3.93,3.7-3.46,1.15.57.93,3.96,1.45,5.12.94.39,5.04.23,5.23,1.34.12.77-2.7,2.51-3.07,3.01-1.04,1.4,1.67,4.03,1.13,5.73l-1.39.14,2.79,5.99c.43.1.45-.07.67-.3.7-.7,2.44-3.38,3.61-3.03,1.08.32.03,4.57.21,5.51.89.66,4.67,1.38,4.64,2.46-.31,1.63-4.32,1.75-4.83,2.6-.34,1.13,0,2.32-.16,3.46-.09.69-.71,1.6-.71,1.98,0,.85,2.03,4.1,1.85,5.43.37.38,8.91-4.69,2.59,4.03.42,1.31,3.49,3.13,3.27,4.43-1.52,1.06-3.39.02-5.04.3-.59.36-.98,3.49-1.53,4.32-.4.61-1.11.43-1.25.76-.15.36-1.39,5.24-1.38,5.53.03.57.68.76.79,1.16.24.89-1.39,3.28-1.36,4.39.33,1.26,3.48,2.84,3.05,4.15-.3.93-4.25.19-5.23.5-.95,1.54-1.29,5.79-3.66,4.13-1.55,3.24-4.02,5.91-6.13,8.78,1.08,11.68,2.37,23.07,5.78,34.33,2.2,7.27,6.13,13.97,6.2,21.79-1.03.29-1.16-.94-1.47-1.74-1.61-4.18-3.08-9.61-4.59-14.07-1.96-5.8-3.74-11.64-5.08-17.62-.52.11-.5.55-.56.97-.74,5.43-1.09,12.09-.84,17.56.2,4.5,1.21,8.99,1.12,13.5-1.74-1.51-3.18-3.47-4.56-5.32-3.62-4.85-6.68-10.01-7.14-16.25-.8-10.76,3.4-20.51,2.79-31.48-.28-5.06-1.92-10.12-1.11-15.18-.94.31-2.88,1.31-2.99,2.41-.05.53,1.34,4.68,1.53,5.89.15.99.73,6.46.32,6.71l-1.38-.09-.85-7.23-6.7-21.43-.39-.45c-1.91,1.01-2.86.12-4.29-1.14l5.23,24.14c-.16,1.01-1.1,1.1-1.83.57l-7.31-31.4c-2.42,1.56-3.59-.93-3.9-3.06-.48-.07-.26.63-.27.97-.25,6.64,2.22,13.4,3.53,19.86.93,4.58,1.41,9.26,2.56,13.79-.19.66-1.47.91-1.73.11l-6.01-27.34c-2.35-.04-2.92-1.09-3.38-3.22-.46-.36-.81,1.99-.84,2.36-.32,3.81.18,8.14,1.82,11.57,1.21,7.15,1.59,14.49,2.32,21.68-.73.4-1.5.5-1.84-.44l-1.98-18.01c-2.32,0-3.48-1.14-3.38-3.5-.4-.07-.39.49-.47.78-2.52,9.06.41,18.54-.07,27.5-.14,2.52-.95,5.03-1.12,7.51-.25,3.75,1.31,9.95,1.67,14.2.14,1.7,1.11,2.79-.16,4.3-1.24,1.48-6.25,5.38-8.04,5.88-2.82.79-6.36-.15-8.98-1.35-1.16-.53-5.15-2.69-5.37-3.82-.2-1.03.43-4.25.69-5.43.53-2.39,1.57-4.72,2.02-7.17,1.07-5.85.85-12.17,2.38-17.95,1.9-7.14,7.6-12.77,8.55-20.27-.68.52-1.14,1.78-2.1,1.95-.38.07-.91.06-1.25-.14-.46-.27-.33-1.4-.83-1.12l-11.13,19.44c-.73.83-1.96.1-1.64-.99,5.57-10.46,12.93-20.22,16.39-31.67-.67-.03-.93.62-1.59.77-1.72.4-2.89-.23-3.15-1.99l-.55-.18-16.74,30.19-1.65.44c-.02-.49-.02-.98.07-1.47.39-2.17,5.18-10.17,6.57-12.65,3.59-6.41,7.41-12.78,11.46-18.89.23-.53-1.09-.48-1.66-.84-.95-.61-.79-1.81-1.68-1.8-7.99,10.82-14.82,22.38-21.22,34.2l-1.09-.07c-.85-.6.36-2.51.71-3.23,1.74-3.53,4.02-6.85,5.77-10.38l9.13-14.68c-1.59.16-2.32-.43-2.64-1.95-3.58,3.06-6.39,7.15-8.89,11.16-4.17,6.69-9.63,17.3-10.19,25.18-.48,6.76.67,13.14,1.11,19.77.15,2.31.63,7.39.22,9.4-.12.6-2.65,4.76-3.16,5.47-.43.59-1.08,1-1.5,1.56-2.87,3.8-5.6,7.84-9.2,10.99-.43-3.51-.29-6.92,0-10.44.5-6.01,1.58-12.63,2.55-18.61.23-1.44.97-7.15,1.48-7.99.26-.42.58-.15.66.18.16.63.07,2.02.04,2.74-.34,6.65-2.11,14.11-2.78,20.89-.31,3.09-.54,6.22-.56,9.33l7.23-8.5c1.99-1.86,1.41-4.73,1.36-7.2-.26-13.34.13-26.57.86-39.87.75-13.6,1.03-28.6,6.74-41.17.35-.76,2-4.2,2.46-4.5.28-.19.53-.15.84-.13-.92,3.81-2.9,7.32-4.04,11.14-.68,2.3-1.51,5.34-1.78,7.69-.03.31-.27,1.26.24,1.22,2.56-6.54,7.26-12.27,12.53-16.85,6.29-5.46,13.93-10.3,20.6-15.33,14.09-6.99,18.37,3.51,26.33,12.13,8.17,8.85,14.48,12.73,16.49,25.84.63,4.1.07,8.8.65,12.44.16,1.01,1.1,1.44,1.31,2.59.54,2.95.5,8.18.62,11.36.43,11.9-.98,23.9-1.1,35.94-.05,4.9-.74,4.73,1.99,9.13,1.24,2,2.79,4.05,4.4,5.76-1.51-9.55-.77-19.24,0-28.82.17-2.07.72-4.36.83-6.41.24-4.37-.78-8.75-1.11-13.09-1.83-24.53-1.45-46.42-20.32-64.9-13.2-12.93-25.3-15.76-42.97-9.52-32.3,11.41-30.14,52.96-37.39,80.14-2.34,8.77-6.34,16.26-9.06,24.64-1.49,4.61-2.26,9.43-3.62,14.07-.75.72-.85-1.79-.84-2.08.33-8.15,4.34-16.07,7.18-23.47,3.17-8.29,5.5-16.58,7.29-25.29l-3.6-6.25c-.51-.35-1.17,3.77-2.32,3.57-1.14.03-1.8-3.95-2.16-4.93-10.98-.78-1.84-3.77-1.63-4.68.12-1.43-1.46-4.45-.72-5.66.42-.68,1.6.45,2.09.57-.72-3.39-1.74-6.81-1.67-10.3-2.98,3.94-2.9-1.6-3.09-3.87-.93-.18-5-1.05-5-2.11,0-1.22,3.49-2.25,4.42-2.7.47-.77-1.66-7.56,1.55-5.49.63.4,1.16,1.78,1.84,2.2l2.23-10.86c-6.33,1.75-3.14-1.66-1.2-4.6-.33-.95-2.73-3.7-2.29-4.59.65-1.32,3.96.67,5.17.43.76-.97,1.89-3.89,2.99-4.28.35-.12.89.04,1.14-.11s2.61-4.28,3.16-5.06c.64-.89,2.71-2.95,3.01-3.67.25-.58-.45-.39-.69-.41-1.04-.09-1.96.14-2.33-1.21.09-1.1,3.35-2.53,4.09-3.42-.06-1.14-1.85-4.61-.51-5.28.88-.44,3.46,2.24,4.55,2.33l4.07-2.9,1.26.69,4.6-3.02c.19-.28-1.5-.77-1.09-1.48l4.29-2.69c.72-1.2-.77-5.15.6-5.55,1.51-.03,3.17,3,4.41,3.03,1.17-.1,4.29-2.99,5.02-1.39.22.49-.9,1.62-.01,1.4,3.32-.84,6.68-2.36,10.17-2.78-1.05-2.45,3.48-1.71,4.97-1.98l1.88-4.96c1.35-.39,2.45,3.48,3.15,4.31,1.91.11,7.04-1.7,4.75,1.8l9.75,1.54c-3.26-5.81,1.07-3.16,4.04-1.61,1.12-.7,2.81-3.44,4.17-3.28.24.03.7.26.7.43v4.87ZM196.25,19.38l-4.45.43-2.09-3.77-1.59,4.12-4.39.34c-.69.62,3.49,2.57,3.59,2.95l-1.08,4.29,4.03-2.78,4.6,2.22-1.6-4.27,2.99-3.52ZM214.63,22.86v-4.32l-3.49,3.07-4.03-1.96,1.68,4.31-2.52,3.49,4.74-.42,2.36,3.76,1.26-4.59,3.9-1.4-3.9-1.95ZM194.86,23l12.53,1.25c.13-.8-.31-.84-.88-1.06-1.55-.6-9.55-1.72-10.91-1.26-.38.13-.58.72-.74,1.07ZM185.11,23.55c-1.47-2.16-6.48-.32-8.75.3-1.89.52-5.62.99-5.73,3.32,4.65-1.81,9.52-2.98,14.48-3.62ZM163.39,22.72v4.73l-3.62,1.81,4.18,1.39.83,4.05c.65.14.45-.09.62-.36.63-.97,1.11-2.44,1.65-3.49l4.97.37-2.79-3.35,1.39-4.03-4,1.63-3.24-2.74ZM206,25.51l-10.86-1.39c-.13,1.48,1.49,2.84.57,4.34-.94.68-4.1-1.83-5.17-2.1l-4.75,3.05c-1.67-.01.23-4.39-.12-4.73-4.97.2-9.77,1.89-14.48,3.34-.44.49,3.71,3.33,2.24,4.33-.82.56-4.41-.32-5.54-.41-.66.85-1.95,4.73-2.97,4.73-1.11,0-1.26-3.21-1.52-4.07-.09-.31.18-.49-.42-.4l-9.33,6.82c.57.95,3.59,2.18,3.31,3.29-.34,1.36-4.38.94-5.5,1.07-1,3.08-2.29,8.72-4.22,2.19-3.38,3.81-6.41,8.06-8.64,12.66-.01.56,4.7.75,4.72,2.2-.17.97-4.04,2.25-4.87,2.96-.35,1.24,1.14,4.95-.12,5.73-.87.54-2.69-2.12-3.07-1.83l-1.95,9.75c5.67-1.57,1.78,2.51.55,4.89-.13,1.53,6.42,7-.83,4.86.58,4.41,1.19,8.83,2.51,13.09,1.33-.27,2.52-2.37,3.77-.83l-1.2,5.11,3.14,2.96c.65.12.36-.29.41-.7,2.56-24.62,10.54-52.73,36.99-60.49,13.37-3.92,22.19-3.92,33.85,4.15,11.89,8.23,19.27,19.03,23.87,32.67,3.61,10.7,3.84,21.83,4.73,33.01,1.26-1.69,4.45-5.47,5-7.39.16-.54-.1-.36-.41-.4-1.07-.16-3.93.06-4.05-1.27s3.08-2.48,3.87-3.37l-.49-5.35c.71-1.2,3.5,2.14,4.01,2.48.3.2.2.44.56,0,.41-.51,1.34-4.19,1.57-5.12.6-2.42,1.05-4.96,1.35-7.42-.5-.52-8.78,3.37-1.69-4.36.11-.63-3.76-4-2.73-5.36l4.43.53c.02-3.2-.54-6.4-1.4-9.46-.54-.39-4.01,1.76-4.7.37-.41-1.28,2.15-3.57,2.66-4.7-.32-1.22-2.79-3.81-2.39-4.98l.78-.81c-1.05-1.7-1.41-3.79-2.89-5.2-.39.01-1.56,3.1-2.73,2.46-1.2-.34-1-4.15-1.05-5.24-1.24-.35-5.61-.43-5.48-2.06.09-1.04,2.62-2,3.48-2.6.19-.13.48,0,.31-.45-1.63-2.74-4.18-4.76-6.52-6.87-.6-.1-.32.12-.44.38-.34.75-.52,1.6-.88,2.34l-1.13.09-1.9-4.72-5.49-.08c-1.01-1.59,1.17-2.33,1.91-3.44.19-.28.45-.22,0-.55l-9.06-4.59c-.59-.11-.32.08-.41.39-.29.95-.15,3.7-1.68,3.39-.72-.14-2.41-3.47-2.81-4.31-.82-.52-4.75,1.29-5.97.25-.65-.9.96-1.99,1.27-2.8ZM226.05,32.75c-.16-1.15-.51-1.91-1.47-2.56-.86-.59-6.54-3.38-7.37-3.52-.67-.12-1.53.16-2.02.65l10.86,5.43ZM224.1,36.09h4.73c.12.43,1.54,4.49,1.95,4.18l1.18-3.83,4.39-1.04-3.49-2.37.7-4.17-3.76,2.22-3.76-2.5,1.07,4.53-3.02,2.99ZM162.27,31.08c-1.96-.36-3.56.96-5.1,2-1.68,1.14-3.52,2.25-3.81,4.4l8.26-5.52.65-.88ZM152.02,39.38l.78-4.68-3.76,2.69-4.04-2.13,1.07,4.26c-.19.64-2.56,1.83-3.23,2.34-.23.18-.51,0-.35.64l4.69.32c.35.22,1.14,3.15,1.41,3.74.15.33-.13.5.58.39l1.51-4.48,4.62-.53-3.28-2.56ZM238.3,43.05c-.22-.74-.16-1.73-.54-2.38-.52-.92-3.7-3.96-5.03-3.46-.65.58,5.1,5.26,5.57,5.85ZM245.54,41.38c-.59-.63-2.01,3.21-2.68,3.32l-3.72-2.48,1.31,4.32-3.54,2.5,4.67,1.32.62,4.67,2.67-3.58,4.29,1.91c.07-1.6-2.11-3.4-.99-4.76.21-.25,2.92-2.01,2.39-2.48l-4.11-.34-.9-4.39ZM138.32,56.7c.93-2.43,2.63-4.73,4.12-6.88,1.04-1.5,3.27-3.81,3.97-5.22.16-.32.37-.57-.15-.7-.66-.16-.97.14-1.4.54-1.34,1.24-6.6,8.57-6.82,10.17-.05.37-.2,1.94.28,2.09ZM250.56,60.32c-1.36-2.65-1.92-6.78-5.29-7.51.45,1.18,1.36,2.12,1.91,3.23.86,1.73.91,4.41,3.38,4.28ZM136.93,54.47c-.64-.16-.46.12-.64.35-.45.59-1.83,3.39-2.31,3.5l-4.01-.79,2.13,3.76-2.69,4.04,5.09-1.12c.38.34,2.82,3.81,3.26,3.35l-.42-5.02,4.32-2.22-4.32-1.39-.41-4.46ZM259.19,65.34l-3.76-1.67.14-4.46-3.24,3.01-4-1.34c-.35,1.04,2.26,3.49,2.19,3.99l-2.75,4.09,4.28-1.06,2.95,3.56.41-4.47,3.77-1.65ZM132.15,77.55c.23-3.83,1.29-7.56,2.25-11.26-.37-.98-.84-1.41-1.39-.28-.62,1.27-2.67,11.37-2.21,11.85l1.35-.32ZM208.78,79.82c-3.61-1.44-7.83-4.08-10.3-7.11-1-1.24-1.5-2.6-2.51-3.75-6.2,9.61-19.3,10.75-28.22,16.76-1.65,1.11-2.49,1.87-3.12,3.84-.75,2.34-1.03,5.65-1.11,8.08,2.65-3.87,6.16-9.12,10.44-11.28,2.22-1.12,3.23-1.41,5.4.12.46-.08,2.43-3.51,3.09-4.17,3.05-3.03,7.88-2.32,6.28,2.79,1.29-.41,2.82-.13,3.5,1.09-.16,2.41.4,5.35.1,7.66-.28,2.11-1.94,4.36-2.49,6.43,1.05.04,2.07-.59,2.59.78.25.65-.13,1.05-.03,1.65,1.59,9.69-5.11,13.71-7.55,21.81-1.73,5.76-1.33,11.92-2.32,17.73-.65,3.8-2.95,8.68-2.97,12.37,0,1.25,3.57,2.83,4.73,3.3,6.77,2.71,9.48.63,14.14-4.23.13-.62.08-1.26.05-1.89-.15-3.67-1.04-7.36-1.6-10.93s-.15-6.26.49-9.82c-.62.07-1.48-.15-2.05.04-.53.18-.64,1.5-1.85,1.07-.46-2.91,1.76-3.5,4.17-2.79.06-9.18-2.32-19.35.19-28.36.54-1.95,1.59-4.21,3.99-3.95-.47-3.7-1.58-10.76,1.97-13.21,1.13-.78,2.28-1.13,3.6-.71-.19-1.38.59-2.35,1.39-3.34ZM253.9,76.19l.8-2.86-1.91-2.71c.15,1.71.34,3.45.56,5.15.05.38.15.83.55.42ZM134.98,77.87l-4.56,1.33-3.23-3.28c-.39,1.38.97,4.09-.17,4.98-.47.37-3.71,1.25-3.17,1.98l3.65,1.23.81,4.34,2.41-3.31,3.99.8-2.23-4.01,2.51-4.06ZM260.86,79.26l-4.18.71-1.67-3.78-1.38,3.78-4.19-.72,2.73,4.27-2.74,3.8,4.43-.81c.16.12,1.05,3.25,1.35,3.8.18.32-.01.47.62.36l1.39-4.04,4.18.14c.47-.42-2.92-3.01-3.02-3.52l2.46-4ZM225.77,100.14c-.05-4.44.17-11.57-3.64-14.6-2.14-1.7-5.43-2.54-8.05-3.23l1.11,4.46c3.4-.95,4.34.16,5.96,2.81,1.83,2.98,2.6,6.06,3.85,9.24.15.37.34,1.26.76,1.32ZM132.17,86.53c-1.77-.82-1.43,1.92-1.33,3.14.13,1.62,1.6,9.49,2.32,10.5.2.28.73.8,1.12.82l-2.11-14.45ZM251.12,99.87c2.12-.58,3.28-6.08,3.35-7.95.04-1.18-.59-1.79-.57-2.91l-2.78,10.86ZM253.34,100.15l-3.76,1.85-3.48-2.41.7,4.17-3.76,2.52c-.06.4.77.43,1.05.47.64.1,2.99.05,3.28.32l.96,4.21c1.3-.76,1.25-2.66,2.22-3.77l4.18.15-2.74-3.26,1.35-4.26ZM135.95,107.66h4.32l-3.49-3.31,1.12-4.49-3.62,2.21-3.76-2.21,1.06,4.28-3.28,2.82c0,.62,3.59.44,4.18.83l1.39,4.33c1.07-.38,1.39-4.23,2.09-4.46ZM155.03,113.79l3.85-8.5c-.03-.35-1.76-1.3-2.19-1.66-.34-.29-1.7-2.53-1.57-.34.09,1.41,1.23,2.87,1.03,4.36h-1.38c-.21.21-.62,5.38-.53,5.66.12.36.41.54.79.47ZM138.26,108.84c-.26-.15-1.52-.3-1.33.35.14.46,3.06,5.64,3.33,5.44,1.19-.89-1.53-5.52-2-5.79ZM141.1,108.78l-1.38.42.97,1.53c.73.36.32-1.68.41-1.95ZM241.37,119.36c.34-.09.6-.45.82-.7.86-.97,4.54-5.88,4.87-6.83.35-1.03.03-1.77-.13-2.77l-5.64,8.43.08,1.87Z"/><path class="cls-1" d="M187.82,135.85c.74-.07,1.39.47,2.17.52,1.07.06,1.74-.56,2.84-.08,1.76.76,3.49,5.1,3.66,6.92.76,7.8-14.28,7.93-13.04-1.4.24-1.82,2.34-5.77,4.36-5.95ZM194.3,141.09c.13-.15-1.03-2.52-1.26-2.77-1.01-1.09-1.97-.25-3.04-.28-1.45-.04-2.04-1.42-3.33.28-.34.44-1.08,1.77-.86,2.21,2.34-1.79,6.47-1.64,8.49.56Z"/><path class="cls-1" d="M185.53,150.28c1.73,1.47,3.76,1.97,6,1.54,1.17-.22,2.21-1.52,3.04-.58-1.3,2.84-5.59,3.01-7.99,1.59-.88-.52-2.17-1.62-1.06-2.56Z"/><path class="cls-1" d="M187.3,129.43c-.21-.13-.87.02-1.34-.18-1.25-.54-.67-1.76.45-2.01,1.52-.18,3.8,3.01,3.04,4.11-1.05,1.52-2-1.83-2.14-1.92Z"/><path class="cls-1" d="M92.24,170.54c-.1,0-.4-.25-.89-.74-5.03-8.68-11.39-15.26-19.08-19.75-7.69-4.49-16.52-6.83-26.48-7.03-.1,0-.25-.1-.44-.3-.2-.2-.25-.34-.15-.44,3.16-3.16,6.26-6.53,9.32-10.13,3.06-3.6,5.84-7.37,8.36-11.32,2.51-3.94,4.63-8.09,6.36-12.43,1.72-4.34,2.83-8.78,3.33-13.31.3-3.35.02-6.75-.81-10.21-.84-3.45-2.24-6.51-4.22-9.17-2.17-2.76-4.88-4.9-8.14-6.43-3.25-1.53-6.61-2.29-10.06-2.29-3.85,0-7.4.67-10.65,2-3.25,1.33-6.36,3.28-9.32,5.84-.49.59-.99,1.18-1.48,1.78-.49.59-.84,1.28-1.04,2.07-.2.59-.3,1.21-.3,1.85s.1,1.26.3,1.85c.49,1.48,1.35,2.79,2.59,3.92,1.23,1.13,2.54,2.15,3.92,3.03,1.97,1.28,3.99,2.51,6.07,3.7s4.12,2.42,6.14,3.7c2.02,1.28,3.94,2.66,5.77,4.14,1.82,1.48,3.48,3.11,4.96,4.88.98,1.18,1.75,2.51,2.29,3.99.54,1.48.71,2.96.52,4.44-.2,2.27-.96,4.44-2.29,6.51-1.33,2.07-2.84,3.95-4.51,5.62l-10.21,10.21c-.2.2-.4.17-.59-.07-.2-.25-.2-.42,0-.52,1.38-1.58,2.69-3.25,3.92-5.03,1.23-1.78,2.05-3.65,2.44-5.62.49-2.27.24-4.44-.74-6.51-.69-1.58-1.63-2.96-2.81-4.14-1.18-1.18-2.47-2.32-3.85-3.4-1.77-1.38-3.62-2.66-5.55-3.85-1.92-1.18-3.85-2.34-5.77-3.48-1.92-1.13-3.82-2.32-5.7-3.55-1.87-1.23-3.6-2.64-5.18-4.22-1.28-1.28-2.12-2.61-2.51-3.99-.49-1.38-.39-2.76.3-4.14.3-.79.69-1.5,1.18-2.15.49-.64,1.04-1.26,1.63-1.85l9.32-9.32c1.97-1.97,3.94-3.99,5.92-6.07,1.97-2.07,4.04-4.04,6.21-5.92,6.11-5.03,13.07-7.25,20.86-6.66,4.73.4,9.02,2.12,12.87,5.18,3.85,3.06,6.56,6.86,8.14,11.39.79,2.47,1.28,5.01,1.48,7.62.2,2.61.1,5.2-.3,7.77-.59,4.24-1.78,8.38-3.55,12.43-1.77,4.05-3.87,7.91-6.29,11.61-2.42,3.7-5.08,7.23-7.99,10.58-2.91,3.35-5.84,6.51-8.8,9.47,9.86,0,18.59,2.47,26.18,7.4,7.59,4.93,13.91,11.44,18.94,19.53,2.27-2.66,4.36-5.45,6.29-8.36,1.92-2.91,3.43-5.94,4.51-9.1.98-2.86,1.68-5.77,2.07-8.73.39-2.96.34-5.92-.15-8.88-.49-2.66-1.23-5.3-2.22-7.91-.99-2.61-2.12-5.15-3.4-7.62-1.38-2.66-2.88-5.27-4.51-7.84-1.63-2.56-3.08-5.23-4.36-7.99-.59-1.38-1.04-2.81-1.33-4.29-.3-1.48-.25-2.91.15-4.29.2-.89.54-1.72,1.04-2.51.49-.79,1.08-1.53,1.78-2.22,1.48-1.48,2.96-2.98,4.44-4.51,1.48-1.53,3.01-3.03,4.59-4.51-1.58-.3-3.11-.69-4.59-1.18-1.48-.49-3.01-.94-4.59-1.33-1.09-.2-2.17-.3-3.25-.3s-2.17.2-3.25.59c-.99.3-1.9.74-2.74,1.33-.84.59-1.65,1.23-2.44,1.92l-.44-.44c1.68-1.78,3.38-3.52,5.1-5.25,1.72-1.72,3.43-3.43,5.1-5.1,1.18-1.18,2.56-2.17,4.14-2.96,1.58-.79,3.2-1.18,4.88-1.18,1.38,0,2.71.2,3.99.59,1.28.4,2.56.79,3.85,1.18,1.28.4,2.59.74,3.92,1.04,1.33.3,2.64.44,3.92.44,2.86-.2,5.33-1.33,7.4-3.4.1-.1.22-.02.37.22.15.25.27.37.37.37-1.68,1.68-3.4,3.38-5.18,5.1-1.78,1.73-3.5,3.48-5.18,5.25-1.09,1.09-2.32,1.95-3.7,2.59-1.38.64-2.81.96-4.29.96-.4,0-.76-.02-1.11-.07-.35-.05-.76-.07-1.26-.07-.49.69-.94,1.43-1.33,2.22-.4.79-.64,1.58-.74,2.37-.2,1.48-.07,2.96.37,4.44.44,1.48.96,2.91,1.55,4.29,1.38,2.86,2.96,5.67,4.73,8.43,1.78,2.76,3.35,5.57,4.73,8.43,1.08,2.27,2.05,4.64,2.88,7.1.84,2.47,1.45,4.98,1.85,7.54.49,4.93.05,9.72-1.33,14.35-.99,3.16-2.27,6.09-3.85,8.8-1.58,2.71-3.33,5.28-5.25,7.69-1.92,2.42-3.97,4.78-6.14,7.1-2.17,2.32-4.39,4.61-6.66,6.88-1.68,1.68-3.4,3.38-5.18,5.1-1.78,1.73-3.5,3.48-5.18,5.25Z"/><path class="cls-1" d="M327.15,162.4c-5.03,2.57-10.33,4.44-15.9,5.62-5.57,1.18-11.12,1.53-16.64,1.04-4.93-.49-9.67-1.68-14.2-3.55-4.54-1.87-8.7-4.31-12.5-7.32-3.8-3.01-7.13-6.51-9.99-10.5-2.86-3.99-5.08-8.31-6.66-12.94-1.68-4.93-2.47-10.08-2.37-15.46.1-5.37.98-10.53,2.66-15.46,1.97-5.52,4.51-10.4,7.62-14.65,3.11-4.24,6.73-8.43,10.87-12.57l5.92-5.77c.49-.49.98-.98,1.48-1.48.49-.49,1.04-.98,1.63-1.48l.44.44c-3.55,3.75-6.83,7.77-9.84,12.06-3.01,4.29-5.35,8.9-7.03,13.83-1.38,4.24-2.24,8.65-2.59,13.24-.35,4.59.02,9.1,1.11,13.54,1.38,5.62,3.62,10.73,6.73,15.31,3.11,4.59,6.8,8.51,11.1,11.76,4.29,3.25,9.07,5.77,14.35,7.54,5.28,1.78,10.77,2.66,16.49,2.66,2.37,0,4.63-.15,6.8-.44,2.27-2.46,4.04-5.03,5.33-7.69.79-1.78,1.18-3.72,1.18-5.84s-.44-4.07-1.33-5.84c-1.09-2.37-2.59-4.49-4.51-6.36-1.92-1.87-3.97-3.55-6.14-5.03-3.16-2.27-6.43-4.36-9.84-6.29-3.4-1.92-6.78-3.87-10.13-5.84-1.48-.79-3.16-1.78-5.03-2.96-1.87-1.18-3.72-2.46-5.55-3.85-1.83-1.38-3.48-2.86-4.96-4.44-1.48-1.58-2.57-3.2-3.25-4.88-.79-1.97-.89-3.99-.3-6.07.39-1.38,1.01-2.61,1.85-3.7.84-1.08,1.75-2.17,2.74-3.25l10.35-10.36c.2-.1.32-.2.37-.3.05-.1.12-.2.22-.3,1.58-1.58,3.13-3.13,4.66-4.66,1.53-1.53,3.03-3.08,4.51-4.66,1.78-1.78,3.55-3.52,5.33-5.25,1.77-1.72,3.5-3.48,5.18-5.25,2.96,2.66,6.24,5.06,9.84,7.17,3.6,2.12,7.37,3.28,11.32,3.48,2.07.1,4.12-.22,6.14-.96,2.02-.74,3.87-1.75,5.55-3.03.2-.2.42-.2.67,0,.24.2.27.4.07.59-4.73,4.73-9.44,9.39-14.13,13.98-4.69,4.59-9.44,9.2-14.28,13.83,3.45,2.07,6.93,4.05,10.43,5.92,3.5,1.87,6.98,3.9,10.43,6.07,2.17,1.28,4.51,2.79,7.03,4.51,2.51,1.73,4.86,3.65,7.03,5.77,2.17,2.12,3.97,4.41,5.4,6.88,1.43,2.47,2.14,5.13,2.14,7.99s-.79,5.6-2.37,8.21c-1.58,2.61-3.35,4.91-5.33,6.88-1.97,1.97-3.92,3.95-5.84,5.92-1.92,1.97-3.87,3.95-5.84,5.92h-.15l-8.28,8.28ZM325.97,149.83c-1.28,1.28-2.54,2.57-3.77,3.85-1.23,1.28-2.54,2.57-3.92,3.85,6.71-1.08,12.87-3.11,18.49-6.07,1.28-1.38,2.46-2.83,3.55-4.36,1.08-1.53,1.92-3.13,2.51-4.81,1.58-4.04,1.43-8.09-.44-12.13-1.18-2.37-2.76-4.51-4.73-6.43-1.97-1.92-4.05-3.72-6.21-5.4-4.24-3.16-8.63-5.97-13.17-8.43-4.54-2.46-9.07-4.98-13.61-7.54-2.66-1.58-5.33-3.2-7.99-4.88-2.66-1.68-5.13-3.55-7.4-5.62-.89-.89-1.75-1.82-2.59-2.81-.84-.98-1.5-2.07-2-3.25-.79-1.68-.99-3.3-.59-4.88-.3.3-.44.59-.44.89-.89,1.87-1.09,3.85-.59,5.92.3,1.28.84,2.49,1.63,3.62.79,1.13,1.68,2.14,2.66,3.03,2.17,2.07,4.51,3.9,7.03,5.47,2.51,1.58,5.05,3.11,7.62,4.59,3.85,2.27,7.74,4.54,11.69,6.8,3.94,2.27,7.64,4.83,11.09,7.69,1.87,1.48,3.62,3.18,5.25,5.1,1.63,1.92,2.83,4.02,3.62,6.29.89,3.06.79,6.16-.3,9.32-.79,1.97-1.85,3.8-3.18,5.47-1.33,1.68-2.74,3.25-4.22,4.73ZM303.48,84.29c1.38.99,2.76,1.9,4.14,2.74,1.38.84,2.76,1.7,4.14,2.59,2.37-2.46,4.76-4.88,7.17-7.25,2.42-2.37,4.86-4.73,7.32-7.1-2.76,1.09-5.52,1.58-8.28,1.48-3.75-.39-7.37-1.58-10.87-3.55-3.5-1.97-6.63-4.29-9.39-6.95-.89,1.09-1.6,2.27-2.15,3.55-.54,1.28-.72,2.57-.52,3.85.39,2.27,1.43,4.27,3.11,5.99,1.68,1.73,3.45,3.28,5.33,4.66Z"/><path class="cls-1" d="M84.81,213.39c.04-.1.18-.16.41-.16s.37.06.41.19c.19.69.28,1.5.28,2.42,0,.61-.04,1.17-.13,1.7-.21,1.32-.6,3.15-1.16,5.49-.57,2.34-.99,3.88-1.29,4.61-.25.65-.61,1.16-1.08,1.52s-.97.55-1.49.55c-.9,0-1.61-.46-2.13-1.38-.21-.33-.8-1.73-1.76-4.18-.92-2.45-1.7-4.27-2.32-5.46-.63-1.26-.94-2.07-.94-2.45,0-.19.06-.35.19-.47.15-.15.38-.22.69-.22.42,0,.73.09.94.28.23.19.49.6.77,1.24.28.64,1.14,2.77,2.56,6.39.73,1.84,1.24,3.04,1.51,3.61.27.56.5.85.69.85.1,0,.22-.07.34-.22.31-.42,1.19-3.89,2.64-10.42.5-2.37.79-3.66.88-3.89Z"/><path class="cls-1" d="M95.92,214.21c.36-.08.76-.13,1.22-.13.65,0,1.19.11,1.63.33.44.22.66.51.66.86,0,.42-.2.63-.6.63-.19,0-.42-.03-.69-.09l-.69-.13c-.12,0-.23.06-.31.19-.13.21-.17.37-.13.47.21.73.37,2.95.47,6.66l.09,4.27h.79c.69,0,1.04.17,1.04.5,0,.13-.01.22-.03.28-.06.25-.27.42-.63.5-.36.1-.67.27-.96.5s-.45.47-.49.72c-.04.19-.15.38-.31.57-.17.19-.32.28-.47.28-.04,0-.21-.15-.5-.44l-.41-.41-1.7.57c-1.11.36-1.77.53-1.98.53-.23,0-.43-.09-.61-.28-.18-.19-.27-.38-.27-.56,0-.13.06-.24.19-.35.02-.02.74-.29,2.17-.82,1.3-.48,2.01-.78,2.13-.91.06-.06.09-.46.09-1.19,0-.17-.02-1.21-.06-3.14-.06-2.66-.21-4.53-.44-5.62-.19-.86-.33-1.32-.44-1.38-.06-.02-.12-.03-.19-.03-.11,0-.27.03-.5.09-.02,0-.05,0-.09.02-.04.01-.07.02-.09.02-.23,0-.44-.09-.64-.27s-.3-.37-.3-.58c0-.02,0-.04.02-.06.01-.02.02-.04.02-.06.04-.23.42-.51,1.13-.85.86-.38,1.49-.61,1.88-.69Z"/><path class="cls-1" d="M109.83,214.21c.15-.21.35-.31.6-.31s.59.12,1,.35c.38.21,1,.49,1.88.85,2.11.86,3.17,2.1,3.17,3.74,0,.65-.18,1.39-.53,2.23-.25.59-.52,1.08-.8,1.49-.28.41-.74.95-1.37,1.62-.52.54-.79.88-.79,1,0,.04.02.08.06.12.1.15.85.68,2.23,1.6,1.07.73,1.81,1.3,2.23,1.7s.63.75.63,1.07c0,.23-.07.41-.2.55-.14.14-.3.2-.49.2-.25,0-.48-.11-.69-.34-.31-.31-1.37-1.05-3.17-2.2-1.76-1.17-2.91-1.98-3.45-2.42-.54-.44-.82-.79-.82-1.07,0-.23.07-.4.22-.5s.44-.19.88-.25c.92-.15,1.77-.69,2.56-1.63s1.21-1.94,1.27-2.98v-.31c0-1.19-.67-1.89-2.01-2.1-.21-.04-.35-.06-.41-.06-.15,0-.31.09-.5.28-.38.38-1.2,2.67-2.48,6.88-.84,2.74-1.54,4.88-2.1,6.4-.63,1.7-.97,2.65-1.04,2.86-.11.31-.29.47-.57.47-.1,0-.22-.03-.34-.09-.17-.08-.25-.31-.25-.69,0-.46.08-1.08.25-1.85.23-1.05.59-2.38,1.08-3.99.49-1.61.84-2.83,1.05-3.64.38-1.51,1.05-3.69,2.01-6.56.48-1.42.77-2.22.88-2.39Z"/><path class="cls-1" d="M132.97,214.77c.36-.12.69-.19,1-.19.5,0,1.19.14,2.07.41.65.19,1.23.37,1.76.53.44.12.66.44.66.94,0,.33-.16.55-.47.66-.06.02-.17.03-.31.03-.19,0-.94-.17-2.26-.5-.48-.13-.87-.19-1.16-.19-.48,0-.87.24-1.16.72-.21.33-.39.54-.53.63-.15.08-.43.15-.85.19-.33.02-.56.08-.67.19-.12.11-.21.33-.3.66-.04.25-.18.38-.41.38-.44,0-.83.25-1.16.75-.23.36-.64.74-1.22,1.16-.63.48-1.11.93-1.46,1.35-.34.42-.72,1.02-1.11,1.79-.44.9-.66,1.62-.66,2.17s.15,1,.44,1.38c.29.36.61.59.94.69.23.08.54.12.94.12.98,0,2.13-.22,3.44-.66,1.31-.44,2.27-.95,2.87-1.54.29-.29.44-.5.44-.63,0-.31-.83-.55-2.48-.72-.86-.1-1.38-.18-1.55-.22-.18-.04-.32-.16-.42-.35-.15-.23-.15-.48,0-.75.15-.25.45-.39.91-.41h.19c.44,0,1.16.06,2.17.19,1.7.23,3.1.53,4.21.9,1.11.37,1.71.73,1.79,1.08.02.06.03.16.03.28,0,.29-.23.44-.69.44-.21,0-.5-.03-.88-.09-.04,0-.08,0-.13-.02-.04,0-.08-.02-.12-.02-.36,0-1.14.49-2.35,1.48-2.2,1.8-4.46,2.7-6.78,2.7-.59,0-1.18-.08-1.79-.25-.63-.19-1.18-.5-1.66-.94s-.79-.91-.91-1.41c-.08-.31-.13-.68-.13-1.1,0-1.51.68-3.19,2.04-5.05,1.05-1.44,2.34-2.84,3.88-4.19,1.54-1.35,2.83-2.21,3.88-2.59Z"/><path class="cls-1" d="M148.41,214.3c.08-.04.21-.06.38-.06.33,0,.69.19,1.07.56.27.29.53.44.79.44.19,0,.37,0,.53-.03,1.11-.12,1.96-.19,2.54-.19.96,0,1.83.2,2.61.6.36.17.7.4,1.02.69.32.29.52.54.58.75.02.04.03.1.03.19,0,.21-.08.39-.25.53-.17.15-.35.22-.53.22s-.32-.06-.41-.19c-.17-.17-.5-.33-1-.5-.57-.19-1.05-.28-1.44-.28-.06,0-.16,0-.28.02-.13.01-.23.02-.31.02-.75.04-1.51.17-2.28.38-.76.21-1.21.42-1.33.63-.12.21-.45,1.27-.97,3.17-.44,1.7-.66,2.72-.66,3.08,0,.15.03.22.09.22.04,0,.08-.02.13-.06.1-.08.55-.25,1.35-.5.79-.25,1.49-.44,2.07-.56.61-.13,1.17-.19,1.7-.19.58,0,.96.07,1.13.22.19.12.28.34.28.66,0,.21-.05.36-.16.44-.21.15-1.38.52-3.52,1.13-1.82.54-2.95.93-3.39,1.16s-.81.64-1.1,1.22c-.21.4-.31.74-.31,1.04,0,.21.06.33.19.38h.13c.52,0,2.95-.49,7.28-1.48,3.24-.73,5.11-1.1,5.59-1.1.29,0,.49.07.6.22.13.21.19.32.19.35,0,.36-1.15.92-3.44,1.68-2.29.76-4.93,1.46-7.93,2.09-2.05.42-3.16.71-3.33.88-.17.15-.25.5-.25,1.07,0,.4-.02.65-.06.75-.04.1-.14.2-.28.28-.08.04-.19.06-.31.06-.38,0-.7-.45-.97-1.35-.27-.96-.41-1.59-.41-1.88,0-.4.18-.83.53-1.29.27-.36.43-.72.47-1.1.08-.48.41-1.66.99-3.55.58-1.88.9-3.01.99-3.39.21-.8.45-1.9.72-3.31.27-1.41.41-2.28.41-2.59,0-.33.06-.65.17-.96.12-.3.25-.49.39-.55Z"/><path class="cls-1" d="M172.14,214.3c.17-.17.42-.25.75-.25.29,0,.55.07.79.22.65.44,1.05,2.41,1.19,5.9.08,1.44.16,2.31.22,2.61l.06.53.85-1.07c.46-.63,1.26-1.75,2.39-3.36,1.63-2.36,2.77-3.87,3.42-4.52.21-.21.45-.31.72-.31.21,0,.33.02.36.05s.03.16-.02.39c-.1.48-.52,1.42-1.26,2.81-.73,1.39-1.44,2.6-2.13,3.63-1.78,2.6-2.88,4.15-3.31,4.68-.43.52-.87.83-1.33.91-.02,0-.06,0-.11.02-.05.01-.09.02-.11.02-.46,0-.82-.4-1.08-1.19-.26-.8-.48-2.16-.64-4.08-.1-1.17-.18-1.78-.22-1.82-.08.17-.17.38-.25.63-1,2.76-2.5,5.87-4.49,9.32-.67,1.21-1.24,1.82-1.7,1.82h-.09c-.17-.02-.27-.07-.3-.14-.03-.07-.05-.29-.05-.64,0-.33.06-.67.19-1,.13-.33.44-.98.94-1.95,1.72-3.43,3.13-6.94,4.24-10.52.5-1.63.83-2.52.97-2.67Z"/><path class="cls-1" d="M205.96,212.38c.29-.08.46-.13.5-.13h.03c.17,0,.44.06.82.19.38.13.61.23.69.31.17.17.25.39.25.66,0,.21-.05.37-.16.47-.08.08-.33.13-.75.13-.67,0-1.49.52-2.45,1.57-.5.54-.98,1.21-1.44,1.99-.46.79-.69,1.33-.69,1.65s.08.53.25.66c.46.42,1.75.72,3.86.91,1.34.13,2.49.33,3.44.61.95.28,1.51.59,1.68.93.08.15.13.33.13.56,0,.88-.46,1.93-1.38,3.14-.38.52-1.09,1.32-2.15,2.4-1.06,1.08-1.94,1.91-2.65,2.5-1.24,1.03-2.59,1.94-4.07,2.75s-2.55,1.21-3.22,1.21c-.73,0-1.1-.19-1.1-.56,0-.08,0-.15.03-.19.06-.23.61-.6,1.63-1.1,4.06-2.01,7.32-4.86,9.76-8.54.5-.73.75-1.21.75-1.44,0-.1-.06-.19-.19-.25-.38-.1-1.31-.25-2.79-.44-1.49-.19-2.58-.38-3.28-.57s-1.25-.45-1.65-.79c-.54-.46-.82-1.05-.82-1.76v-.38c.04-.5.19-.99.46-1.47s.86-1.34,1.8-2.58c.63-.86,1.13-1.46,1.51-1.8.38-.35.77-.56,1.19-.64Z"/><path class="cls-1" d="M224.51,214.24c.13-.15.27-.22.44-.22.31,0,.66.21,1.04.63.67.73,1,1.41,1,2.04,0,.29-.05.73-.16,1.32-.33,1.63-.5,3.2-.5,4.71,0,.04.01.09.03.16v.06c.04.06.63.09,1.76.09.92,0,1.53.05,1.84.14.3.09.46.28.46.55,0,.4-.82.79-2.45,1.16-.86.21-1.38.4-1.57.56-.19.17-.28.55-.28,1.16,0,1.05.29,1.7.88,1.95.13.04.28.06.47.06,1.15,0,2.23-.23,3.23-.69.54-.21.89-.31,1.04-.31h.06c.21.02.31.2.31.53,0,.21-.04.38-.13.5-.08.13-.29.29-.63.5-1.09.75-2.3,1.13-3.64,1.13-1,0-1.76-.28-2.26-.85-.54-.57-.86-1.42-.94-2.57-.04-.77-.12-1.18-.22-1.22-.08,0-.24.21-.47.63-.38.71-.98,1.62-1.8,2.72-.83,1.1-1.55,1.97-2.18,2.62-.59.59-.98.96-1.18,1.11-.2.16-.4.24-.61.24-.31,0-.52-.05-.63-.16s-.16-.21-.16-.31c0-.31.45-.93,1.35-1.85.67-.71,1.45-1.66,2.35-2.84.9-1.18,1.35-1.87,1.35-2.06,0-.12-.14-.19-.41-.19h-.56c-.46,0-.8-.1-1-.31-.23-.23-.35-.53-.35-.91,0-.25.06-.42.19-.5.1-.1.61-.21,1.51-.31,1.09-.1,1.78-.31,2.09-.63.3-.31.59-1.09.86-2.32.27-1.32.41-2.31.41-2.98,0-.56-.08-1.08-.25-1.54-.25-.71-.38-1.19-.38-1.44,0-.17.03-.28.09-.34Z"/><path class="cls-1" d="M243.53,214.3c.17-.17.42-.25.75-.25.29,0,.55.07.79.22.65.44,1.05,2.41,1.19,5.9.08,1.44.16,2.31.22,2.61l.06.53.85-1.07c.46-.63,1.26-1.75,2.39-3.36,1.63-2.36,2.77-3.87,3.42-4.52.21-.21.45-.31.72-.31.21,0,.33.02.36.05s.03.16-.02.39c-.1.48-.52,1.42-1.26,2.81-.73,1.39-1.44,2.6-2.13,3.63-1.78,2.6-2.88,4.15-3.31,4.68-.43.52-.87.83-1.33.91-.02,0-.06,0-.11.02-.05.01-.09.02-.11.02-.46,0-.82-.4-1.08-1.19-.26-.8-.48-2.16-.64-4.08-.1-1.17-.18-1.78-.22-1.82-.08.17-.17.38-.25.63-1,2.76-2.5,5.87-4.49,9.32-.67,1.21-1.24,1.82-1.7,1.82h-.09c-.17-.02-.27-.07-.3-.14-.03-.07-.05-.29-.05-.64,0-.33.06-.67.19-1,.13-.33.44-.98.94-1.95,1.72-3.43,3.13-6.94,4.24-10.52.5-1.63.83-2.52.97-2.67Z"/><path class="cls-1" d="M267.46,214.08c.29-.29.58-.44.85-.44s.62.14,1.04.41c.33.21.63.34.88.39.25.05.8.11,1.66.17,2.53.15,4.07.4,4.62.75.21.15.31.36.31.63,0,.21-.06.38-.19.5-.11.11-1.22.16-3.36.16h-3.17l-.38.44c-.23.27-.34.45-.34.53,0,.21-.13,1.28-.38,3.2s-.38,2.97-.38,3.14c-.06.73-.26,1.87-.58,3.41s-.55,2.38-.67,2.53c-.15.17-.38.25-.69.25-.23,0-.39-.05-.47-.16-.06-.1-.16-.52-.28-1.25-.04-.46-.06-.79-.06-.97,0-.67.1-1.77.31-3.3.5-3.83.75-6.04.75-6.62s-.17-.91-.5-1.04c-.04-.02-.27-.03-.69-.03s-1.24.02-2.46.06-1.99.06-2.31.06h-.31l-.06-.03c-.25-.04-.5-.2-.75-.49-.25-.28-.38-.54-.38-.77,0-.21.08-.42.25-.63.13-.15.35-.24.68-.27.32-.03,1.37-.07,3.12-.11l3.52-.09.44-.44Z"/><path class="cls-1" d="M289.21,214.24c.13-.15.27-.22.44-.22.31,0,.66.21,1.04.63.67.73,1,1.41,1,2.04,0,.29-.05.73-.16,1.32-.33,1.63-.5,3.2-.5,4.71,0,.04.01.09.03.16v.06c.04.06.63.09,1.76.09.92,0,1.53.05,1.84.14.3.09.46.28.46.55,0,.4-.82.79-2.45,1.16-.86.21-1.38.4-1.57.56-.19.17-.28.55-.28,1.16,0,1.05.29,1.7.88,1.95.13.04.28.06.47.06,1.15,0,2.23-.23,3.23-.69.54-.21.89-.31,1.04-.31h.06c.21.02.31.2.31.53,0,.21-.04.38-.13.5-.08.13-.29.29-.63.5-1.09.75-2.3,1.13-3.64,1.13-1,0-1.76-.28-2.26-.85-.54-.57-.86-1.42-.94-2.57-.04-.77-.12-1.18-.22-1.22-.08,0-.24.21-.47.63-.38.71-.98,1.62-1.8,2.72-.83,1.1-1.55,1.97-2.18,2.62-.59.59-.98.96-1.18,1.11-.2.16-.4.24-.61.24-.31,0-.52-.05-.63-.16s-.16-.21-.16-.31c0-.31.45-.93,1.35-1.85.67-.71,1.45-1.66,2.35-2.84.9-1.18,1.35-1.87,1.35-2.06,0-.12-.14-.19-.41-.19h-.56c-.46,0-.8-.1-1-.31-.23-.23-.35-.53-.35-.91,0-.25.06-.42.19-.5.1-.1.61-.21,1.51-.31,1.09-.1,1.78-.31,2.09-.63.3-.31.59-1.09.86-2.32.27-1.32.41-2.31.41-2.98,0-.56-.08-1.08-.25-1.54-.25-.71-.38-1.19-.38-1.44,0-.17.03-.28.09-.34Z"/></svg>